<svg width="24" height="24" viewBox="0 0 24 24" fill="none" xmlns="http://www.w3.org/2000/svg">
<path d="M12 2C6.477 2 2 6.477 2 12C2 17.523 6.477 22 12 22C17.523 22 22 17.523 22 12C22 6.477 17.523 2 12 2ZM12 20.5C10.8837 20.4999 9.77834 20.28 8.74704 19.8527C7.71573 19.4255 6.77868 18.7993 5.98939 18.0099C5.20009 17.2205 4.574 16.2834 4.14687 15.252C3.71974 14.2207 3.49993 13.1153 3.5 11.999C3.50007 10.8827 3.72 9.77734 4.14725 8.74604C4.5745 7.71473 5.2007 6.77768 5.99009 5.98839C6.77948 5.19909 7.71661 4.573 8.74796 4.14587C9.77931 3.71874 10.8847 3.49893 12.001 3.499C14.2555 3.49913 16.4176 4.39485 18.0116 5.98909C19.6057 7.58334 20.5011 9.74553 20.501 12C20.5009 14.2545 19.6052 16.4166 18.0109 18.0106C16.4167 19.6047 14.2545 20.5001 12 20.5ZM12 12.5C8.962 12.5 6.5 14.228 6.5 16C6.5 17.772 8.962 19.5 12 19.5C15.038 19.5 17.5 17.772 17.5 16C17.5 14.228 15.038 12.5 12 12.5ZM12 12C12.7956 12 13.5587 11.6839 14.1213 11.1213C14.6839 10.5587 15 9.79565 15 9C15 8.20435 14.6839 7.44129 14.1213 6.87868C13.5587 6.31607 12.7956 6 12 6C11.2044 6 10.4413 6.31607 9.87868 6.87868C9.31607 7.44129 9 8.20435 9 9C9 9.79565 9.31607 10.5587 9.87868 11.1213C10.4413 11.6839 11.2044 12 12 12Z" fill="#222222"/>
</svg>
